<?xml version="1.0" standalone="no"?>
<!DOCTYPE svg PUBLIC "-//W3C//DTD SVG 20010904//EN"
 "http://www.w3.org/TR/2001/REC-SVG-20010904/DTD/svg10.dtd">
<svg version="1.0" xmlns="http://www.w3.org/2000/svg"
 width="1464.000000pt" height="1464.000000pt" viewBox="0 0 1464.000000 1464.000000"
 preserveAspectRatio="xMidYMid meet">
<metadata>
Created by potrace 1.11, written by Peter Selinger 2001-2013
</metadata>
<g transform="translate(0.000000,1464.000000) scale(0.100000,-0.100000)"
fill="#000000" stroke="none">
<path d="M7599 11878 c-4 -13 -3 -68 1 -68 7 0 4 -66 -5 -79 -3 -6 -1 -11 5
-11 6 0 8 -5 5 -11 -9 -13 -12 -79 -5 -79 7 0 5 -54 -4 -68 -3 -6 -2 -14 4
-17 8 -5 8 -11 0 -20 -8 -9 -8 -15 0 -20 6 -4 7 -12 0 -24 -6 -12 -5 -22 2
-29 9 -9 9 -12 0 -12 -9 0 -10 -5 -3 -19 6 -10 7 -21 4 -25 -8 -7 -10 -66 -3
-66 7 0 4 -66 -5 -79 -3 -6 -1 -11 5 -11 6 0 8 -5 5 -11 -9 -13 -12 -79 -5
-79 7 0 5 -54 -4 -68 -3 -6 -2 -14 4 -17 8 -5 8 -11 0 -20 -8 -9 -8 -15 0 -20
6 -4 7 -12 0 -24 -6 -12 -5 -22 2 -29 9 -9 9 -12 0 -12 -9 0 -10 -5 -3 -19 6
-10 7 -21 4 -25 -8 -7 -10 -66 -3 -66 7 0 4 -66 -5 -79 -3 -6 -1 -11 5 -11 6
0 8 -5 5 -11 -9 -13 -12 -79 -5 -79 7 0 5 -54 -4 -68 -3 -6 -2 -14 4 -17 8 -5
8 -11 0 -20 -8 -9 -8 -15 0 -20 6 -4 7 -12 0 -24 -6 -12 -5 -22 2 -29 9 -9 9
-12 0 -12 -9 0 -10 -5 -3 -19 6 -10 7 -21 4 -25 -8 -7 -10 -66 -3 -66 7 0 4
-66 -5 -79 -3 -6 -1 -11 5 -11 6 0 8 -5 5 -11 -9 -13 -12 -79 -5 -79 7 0 5
-54 -4 -68 -3 -6 -2 -14 4 -17 8 -5 8 -11 0 -20 -8 -9 -8 -15 0 -20 6 -4 7
-12 0 -24 -6 -12 -5 -22 2 -29 9 -9 9 -12 0 -12 -9 0 -10 -5 -3 -19 6 -10 7
-21 4 -25 -8 -7 -10 -66 -3 -66 7 0 4 -66 -5 -79 -3 -6 -1 -11 5 -11 6 0 8 -5
5 -11 -10 -15 -12 -79 -3 -79 3 0 3 -13 -2 -30 -5 -16 -6 -30 -2 -30 9 0 8
-53 -2 -68 -3 -6 -2 -13 4 -17 7 -4 7 -12 0 -26 -8 -13 -7 -19 0 -19 8 0 8 -6
0 -20 -8 -14 -8 -20 0 -20 6 0 8 -5 5 -11 -9 -13 -12 -79 -5 -79 7 0 5 -54 -4
-68 -3 -6 -2 -14 4 -17 8 -5 8 -11 0 -20 -8 -9 -8 -15 0 -20 6 -4 7 -12 0 -24
-6 -12 -5 -22 2 -29 9 -9 9 -12 0 -12 -9 0 -10 -5 -3 -19 6 -10 7 -21 4 -25
-8 -7 -10 -66 -3 -66 7 0 4 -66 -5 -79 -3 -6 -1 -11 5 -11 6 0 8 -5 5 -11 -9
-13 -12 -79 -5 -79 7 0 5 -54 -4 -68 -3 -6 -2 -14 4 -17 8 -5 8 -11 0 -20 -8
-9 -8 -15 0 -20 6 -4 7 -12 0 -24 -6 -12 -5 -22 2 -29 9 -9 9 -12 0 -12 -9 0
-10 -5 -3 -19 6 -10 7 -21 4 -25 -8 -7 -10 -66 -3 -66 7 0 4 -66 -5 -79 -3 -6
-1 -11 5 -11 6 0 8 -5 5 -11 -9 -13 -12 -79 -5 -79 7 0 5 -54 -4 -68 -3 -6 -2
-14 4 -17 8 -5 8 -11 0 -20 -8 -9 -8 -15 0 -20 6 -4 7 -12 0 -24 -6 -12 -5
-22 2 -29 9 -9 9 -12 0 -12 -9 0 -10 -5 -3 -19 6 -10 7 -21 4 -25 -8 -7 -10
-66 -3 -66 7 0 4 -66 -5 -79 -3 -6 -1 -11 5 -11 6 0 8 -5 5 -11 -9 -13 -12
-79 -5 -79 7 0 5 -54 -4 -68 -3 -6 -2 -14 4 -17 8 -5 8 -11 0 -20 -8 -9 -8
-15 0 -20 6 -4 7 -12 0 -24 -6 -12 -5 -22 2 -29 9 -9 9 -12 0 -12 -9 0 -10 -5
-3 -19 6 -10 7 -21 4 -25 -8 -7 -10 -66 -3 -66 7 0 4 -66 -5 -79 -3 -6 -1 -11
5 -11 6 0 8 -5 5 -11 -9 -13 -12 -79 -5 -79 7 0 5 -54 -4 -68 -3 -6 -2 -14 4
-17 8 -5 8 -11 0 -20 -8 -9 -8 -15 0 -20 6 -4 7 -12 0 -24 -6 -12 -5 -22 2
-29 9 -9 9 -12 0 -12 -9 0 -10 -5 -3 -19 6 -10 7 -21 4 -25 -8 -7 -10 -66 -3
-66 7 0 4 -66 -5 -79 -3 -6 -1 -11 5 -11 6 0 8 -5 5 -11 -9 -13 -12 -79 -5
-79 7 0 5 -54 -4 -68 -3 -6 -2 -14 4 -17 8 -5 8 -11 0 -20 -8 -9 -8 -15 0 -20
6 -4 7 -12 0 -24 -6 -12 -5 -22 2 -29 9 -9 9 -12 0 -12 -9 0 -10 -5 -3 -19 6
-10 7 -21 4 -25 -8 -7 -10 -66 -3 -66 7 0 4 -66 -5 -79 -3 -6 -1 -11 5 -11 6
0 8 -5 5 -11 -9 -13 -12 -79 -5 -79 7 0 5 -54 -4 -68 -3 -6 -2 -14 4 -17 8 -5
8 -11 0 -20 -8 -9 -8 -15 0 -20 6 -4 7 -12 0 -24 -6 -12 -5 -22 2 -29 9 -9 9
-12 0 -12 -9 0 -10 -5 -3 -19 6 -10 7 -21 4 -25 -8 -7 -10 -66 -3 -66 7 0 4
-66 -5 -79 -3 -6 -1 -11 5 -11 6 0 8 -5 5 -11 -9 -13 -12 -79 -5 -79 7 0 5
-54 -4 -68 -3 -6 -2 -14 4 -17 8 -5 8 -11 0 -20 -8 -9 -8 -15 0 -20 6 -4 7
-12 0 -24 -6 -12 -5 -22 2 -29 9 -9 9 -12 0 -12 -9 0 -10 -5 -3 -19 6 -10 7
-21 4 -25 -8 -7 -10 -66 -3 -66 7 0 4 -66 -5 -79 -3 -6 -1 -11 5 -11 6 0 8 -5
5 -11 -9 -13 -12 -79 -5 -79 7 0 5 -54 -4 -68 -3 -6 -2 -14 4 -17 8 -5 8 -11
0 -20 -8 -9 -8 -15 0 -20 6 -4 7 -12 0 -24 -6 -12 -5 -22 2 -29 9 -9 9 -12 0
-12 -9 0 -10 -5 -3 -19 6 -10 7 -21 4 -25 -8 -7 -10 -66 -3 -66 7 0 4 -66 -5
-79 -3 -6 -1 -11 5 -11 6 0 8 -5 5 -11 -9 -13 -12 -79 -5 -79 7 0 5 -54 -4
-68 -3 -6 -2 -14 4 -17 8 -5 8 -11 0 -20 -8 -9 -8 -15 0 -20 6 -4 7 -12 0 -24
-6 -12 -5 -22 2 -29 9 -9 9 -12 0 -12 -9 0 -10 -5 -3 -19 6 -10 7 -21 4 -25
-8 -7 -10 -66 -3 -66 7 0 4 -66 -5 -79 -3 -6 -1 -11 5 -11 6 0 8 -5 5 -11 -10
-15 -12 -79 -3 -79 3 0 3 -13 -2 -30 -5 -16 -6 -30 -2 -30 9 0 8 -53 -2 -68
-3 -6 -2 -13 4 -17 7 -4 7 -12 0 -26 -7 -13 -7 -25 -1 -38 6 -10 7 -21 4 -25
-8 -7 -10 -66 -3 -66 7 0 4 -66 -5 -79 -3 -6 -1 -11 5 -11 6 0 8 -5 5 -11 -9
-13 -12 -79 -5 -79 7 0 5 -54 -4 -68 -3 -6 -2 -14 4 -17 8 -5 8 -11 0 -20 -8
-9 -8 -15 0 -20 6 -4 7 -12 0 -24 -6 -12 -5 -22 2 -29 9 -9 9 -12 0 -12 -9 0
-10 -5 -3 -19 6 -10 7 -21 4 -25 -8 -7 -10 -66 -3 -66 7 0 4 -66 -5 -79 -3 -6
-1 -11 5 -11 6 0 8 -5 5 -11 -9 -13 -12 -79 -5 -79 7 0 5 -54 -4 -68 -3 -6 -2
-14 4 -17 8 -5 8 -11 0 -20 -8 -9 -8 -15 0 -20 6 -4 7 -12 0 -24 -6 -12 -5
-22 2 -29 9 -9 9 -12 0 -12 -9 0 -10 -5 -3 -19 6 -10 7 -21 4 -25 -8 -7 -10
-66 -3 -66 7 0 4 -66 -5 -79 -3 -6 -1 -11 5 -11 6 0 8 -5 5 -11 -9 -13 -12
-79 -5 -79 7 0 5 -54 -4 -68 -3 -6 -2 -14 4 -17 8 -5 8 -11 0 -20 -8 -9 -8
-15 0 -20 6 -4 7 -12 0 -24 -6 -12 -5 -22 2 -29 9 -9 9 -12 0 -12 -9 0 -10 -5
-3 -19 6 -10 7 -21 4 -25 -8 -7 -10 -66 -3 -66 7 0 4 -66 -5 -79 -4 -8 1004
-11 3519 -11 l3526 0 -47 42 c-26 24 -58 54 -73 68 -14 14 -48 45 -76 69 -77
68 -224 202 -270 246 -23 22 -70 65 -105 95 -34 30 -67 60 -73 65 -18 17 -136
125 -230 210 -49 44 -103 94 -120 110 -18 17 -64 58 -102 91 -38 34 -83 75
-99 90 -29 27 -180 165 -245 224 -85 77 -207 188 -226 205 -12 11 -55 50 -95
86 -41 37 -90 82 -110 100 -19 19 -68 63 -108 98 -39 35 -89 80 -110 100 -22
20 -76 70 -122 111 -45 41 -103 94 -128 117 -25 23 -58 53 -72 65 -39 35 -136
122 -219 199 -41 38 -106 97 -144 131 -110 101 -139 126 -176 161 -30 27 -84
76 -250 227 -15 14 -67 61 -116 105 -116 106 -119 108 -215 195 -45 41 -100
91 -120 110 -21 19 -65 60 -99 90 -34 30 -79 71 -100 90 -20 19 -74 69 -120
110 -46 41 -95 86 -110 100 -59 53 -207 189 -254 231 -27 24 -59 53 -71 64
-11 11 -61 56 -110 100 -49 44 -106 96 -127 116 -21 20 -38 35 -38 34 0 -1
-20 16 -44 39 -23 22 -80 75 -126 116 -45 41 -95 86 -110 100 -15 14 -65 59
-110 100 -46 41 -95 86 -110 100 -15 14 -46 42 -69 63 -42 38 -42 39 -24 60
10 11 31 32 48 47 16 14 41 36 55 50 28 26 223 207 275 254 29 27 196 181 260
241 30 27 166 153 265 245 21 19 84 78 141 130 56 52 121 112 143 133 43 40
211 195 255 235 14 13 51 47 81 75 30 29 102 95 158 147 57 52 128 118 157
145 29 28 92 86 141 130 48 44 106 98 129 120 23 22 71 66 106 98 35 32 109
100 164 152 55 51 116 107 135 125 19 17 80 73 135 124 55 51 126 117 159 147
32 30 73 68 90 84 18 17 74 68 125 115 51 47 114 105 140 130 26 25 90 83 141
130 141 129 355 327 418 388 18 17 35 32 37 32 1 0 34 30 73 68 38 37 105 99
147 137 42 39 100 91 128 117 29 27 55 48 60 48 4 0 7 7 7 15 0 8 4 15 8 15 5
0 30 20 57 45 26 25 57 50 67 56 10 5 16 14 13 20 -4 5 -2 9 3 9 10 0 23 11
142 124 36 33 89 82 118 109 l51 47 -3199 0 c-1760 0 -3200 -1 -3201 -2z"/>
<path d="M7007 11838 c-8 -13 -29 -39 -46 -58 -17 -19 -31 -38 -31 -42 0 -4
-6 -13 -13 -20 -7 -7 -26 -31 -42 -53 -17 -22 -32 -42 -35 -45 -3 -3 -55 -70
-115 -149 -61 -79 -125 -162 -143 -185 -44 -54 -47 -58 -121 -156 -35 -47 -71
-91 -79 -97 -9 -7 -12 -13 -8 -13 4 0 1 -6 -6 -14 -7 -8 -23 -27 -35 -42 -12
-16 -42 -55 -68 -86 -25 -31 -45 -61 -45 -67 0 -6 -4 -11 -8 -11 -5 0 -33 -33
-62 -72 -30 -40 -58 -74 -62 -76 -4 -2 -8 -8 -8 -13 0 -5 -8 -18 -17 -28 -10
-11 -23 -26 -28 -33 -6 -7 -64 -83 -130 -168 -66 -85 -124 -161 -130 -168 -5
-7 -18 -21 -27 -30 -10 -9 -18 -21 -18 -27 0 -5 -15 -27 -33 -47 -17 -21 -54
-67 -82 -104 -27 -37 -60 -78 -72 -92 -13 -14 -23 -28 -23 -31 0 -3 -10 -17
-23 -31 -12 -14 -40 -50 -62 -80 -22 -30 -42 -57 -46 -60 -4 -3 -24 -27 -45
-55 -20 -27 -58 -77 -84 -110 -26 -33 -68 -89 -95 -125 -27 -36 -59 -76 -72
-89 -13 -13 -23 -30 -23 -37 0 -8 -4 -14 -8 -14 -4 0 -26 -24 -47 -52 -22 -29
-43 -57 -48 -63 -4 -5 -27 -35 -50 -65 -23 -31 -48 -62 -55 -70 -6 -8 -60 -78
-119 -155 -59 -77 -112 -145 -118 -151 -5 -6 -17 -22 -25 -34 -8 -12 -23 -32
-32 -43 -27 -34 -28 -35 -118 -152 -47 -60 -88 -114 -92 -120 -29 -36 -45 -57
-61 -77 -9 -13 -32 -42 -50 -64 -17 -23 -41 -54 -52 -69 -20 -28 -135 -177
-158 -205 -7 -8 -23 -31 -37 -50 -14 -19 -32 -42 -40 -52 -20 -22 -20 -22
-138 -178 -57 -74 -111 -144 -120 -155 -10 -11 -69 -87 -132 -170 -63 -82
-125 -161 -137 -175 -13 -14 -23 -28 -23 -32 0 -3 -6 -13 -13 -20 -7 -7 -45
-56 -85 -108 -39 -52 -78 -102 -85 -110 -14 -16 -254 -326 -389 -504 -42 -55
-86 -112 -97 -126 -11 -14 -68 -88 -128 -165 -59 -77 -112 -146 -118 -152 -5
-7 -18 -23 -27 -35 -9 -13 -28 -36 -41 -53 -13 -16 -61 -79 -107 -140 -46 -60
-86 -112 -89 -115 -3 -3 -40 -50 -81 -105 -41 -55 -77 -102 -80 -105 -3 -3
-28 -34 -55 -70 -27 -36 -52 -67 -55 -70 -3 -3 -25 -32 -50 -65 -25 -33 -47
-62 -50 -65 -3 -3 -34 -43 -69 -90 -36 -47 -71 -92 -78 -100 -8 -8 -32 -40
-55 -70 -22 -30 -51 -68 -64 -85 -46 -59 -151 -195 -254 -330 -58 -75 -109
-142 -115 -149 -5 -6 -32 -40 -60 -76 -27 -36 -54 -71 -60 -78 -5 -7 -18 -22
-27 -33 -10 -10 -18 -22 -18 -25 0 -5 -46 -64 -87 -111 -13 -14 -23 -29 -23
-32 0 -4 -18 -27 -40 -51 -22 -25 -40 -48 -40 -52 0 -4 -6 -13 -13 -20 -7 -7
-28 -33 -47 -58 -19 -25 -38 -46 -42 -48 -5 -2 -8 -10 -8 -17 0 -7 -4 -15 -8
-17 -4 -1 -52 -61 -107 -133 -55 -71 -102 -132 -105 -135 -3 -3 -19 -23 -36
-45 -16 -22 -34 -46 -41 -55 -7 -8 -78 -100 -158 -205 -80 -104 -155 -201
-166 -215 -11 -14 -46 -59 -78 -100 l-59 -75 3516 -3 c1933 -1 3517 0 3519 2
8 7 8 84 1 80 -4 -3 -4 6 2 20 6 16 6 27 0 31 -7 4 -6 13 0 26 7 12 7 19 1 19
-7 0 -7 9 -1 25 6 17 6 25 -1 25 -6 0 -7 4 -4 10 9 15 12 89 3 84 -4 -3 -4 5
1 18 5 14 5 31 0 40 -6 11 -5 19 1 23 7 4 7 12 0 25 -7 13 -7 21 0 25 7 4 7
12 0 25 -7 13 -7 21 0 25 7 4 7 12 0 25 -7 13 -7 21 0 25 7 4 7 13 0 26 -8 13
-7 19 0 19 7 0 8 6 0 19 -7 13 -7 22 0 26 7 4 7 12 0 25 -7 13 -7 21 0 25 7 4
7 12 0 25 -7 13 -7 21 0 25 7 4 7 12 0 25 -7 13 -7 21 0 25 6 4 7 13 1 23 -6
11 -6 24 0 35 7 11 6 17 -1 17 -7 0 -8 6 0 19 7 14 7 22 0 26 -8 5 -8 11 -1
19 6 7 8 16 5 19 -10 10 -11 50 -2 70 6 11 5 17 -2 17 -8 0 -8 6 0 20 8 14 8
20 0 20 -8 0 -8 6 0 20 8 14 8 20 0 20 -8 0 -8 6 0 20 8 14 8 20 0 20 -8 0 -8
6 0 20 8 14 8 20 0 20 -8 0 -8 6 0 20 8 14 8 20 0 20 -8 0 -8 6 0 20 8 14 8
20 0 20 -8 0 -8 6 0 20 8 14 8 20 0 20 -8 0 -8 6 0 20 8 14 8 20 0 20 -8 0 -8
6 0 20 8 14 8 20 0 20 -8 0 -8 6 0 20 8 14 8 20 0 20 -8 0 -8 6 0 20 8 14 8
20 0 20 -8 0 -8 6 0 20 8 14 8 20 0 20 -8 0 -8 6 0 20 8 14 8 20 0 20 -8 0 -8
6 0 20 8 14 8 20 0 20 -7 0 -8 6 -2 18 9 19 8 53 -2 70 -3 6 -2 13 3 17 7 4 7
15 1 30 -6 16 -6 25 0 25 6 0 6 10 0 26 -6 14 -7 23 -2 21 8 -6 7 155 -1 178
-4 8 -2 15 3 15 6 0 6 10 0 26 -6 14 -7 23 -2 21 8 -6 7 155 -1 178 -4 8 -2
15 3 15 6 0 6 10 0 26 -6 14 -7 23 -2 21 4 -3 7 19 7 49 0 30 -3 54 -7 54 -4
0 -3 11 2 25 6 16 6 25 0 25 -6 0 -6 9 0 25 6 16 6 25 -1 25 -6 0 -6 7 1 19 7
13 7 22 0 26 -7 4 -7 12 0 25 7 13 7 21 0 25 -7 4 -7 13 0 26 7 12 7 19 1 19
-7 0 -7 9 -1 25 6 16 6 25 0 25 -6 0 -6 9 0 25 6 16 6 25 -1 25 -6 0 -6 7 1
19 7 13 7 22 0 26 -7 4 -7 12 0 25 7 13 7 21 0 25 -7 4 -7 13 0 26 6 10 7 19
3 19 -10 0 -8 63 2 79 3 6 1 11 -5 11 -8 0 -8 6 0 20 8 14 8 20 0 20 -8 0 -8
6 0 20 8 14 8 20 0 20 -8 0 -8 6 0 20 8 14 8 20 0 20 -8 0 -8 6 0 20 8 14 8
20 0 20 -8 0 -8 6 0 20 8 14 8 20 0 20 -8 0 -8 6 0 20 8 14 8 20 0 20 -8 0 -8
6 0 20 8 14 8 20 0 20 -8 0 -8 6 0 20 8 14 8 20 0 20 -8 0 -8 6 0 20 8 14 8
20 0 20 -8 0 -8 6 0 20 8 14 8 20 0 20 -8 0 -8 6 0 20 8 14 8 20 0 20 -8 0 -8
6 0 20 8 14 8 20 0 20 -8 0 -8 6 0 20 8 14 8 20 0 20 -8 0 -8 6 0 20 8 14 8
20 0 20 -7 0 -8 6 -2 18 9 19 8 53 -2 70 -3 6 -2 13 4 17 7 4 7 12 0 25 -7 13
-7 21 0 25 7 4 7 13 0 26 -8 13 -7 19 0 19 7 0 8 6 0 19 -7 13 -7 22 0 26 7 4
7 12 0 25 -7 13 -7 21 0 25 7 4 7 12 0 25 -7 13 -7 21 0 25 7 4 7 12 0 25 -7
13 -7 21 0 25 7 4 7 13 0 26 -8 13 -7 19 0 19 7 0 8 6 0 19 -7 13 -7 22 0 26
7 4 7 12 0 25 -7 13 -7 21 0 25 7 4 7 12 0 25 -7 13 -7 21 0 25 7 4 7 12 0 25
-7 13 -7 21 0 25 7 4 7 13 0 26 -8 13 -7 19 0 19 7 0 8 6 0 19 -7 13 -7 22 0
26 7 4 7 12 0 25 -7 13 -7 21 0 25 7 4 7 12 0 25 -7 13 -7 21 0 25 7 4 7 12 0
25 -7 13 -7 21 0 25 7 4 7 13 0 26 -8 13 -7 19 0 19 7 0 8 6 0 19 -7 13 -7 22
0 26 7 4 7 12 0 25 -7 13 -7 21 0 25 7 4 7 12 0 25 -7 13 -7 21 0 25 7 4 7 12
0 25 -7 13 -7 21 0 25 6 4 7 13 1 23 -6 11 -6 24 0 35 7 11 6 17 -1 17 -7 0
-8 6 0 19 7 14 7 22 0 26 -8 5 -8 11 -1 19 6 7 8 16 5 19 -10 10 -11 50 -2 70
6 11 5 17 -2 17 -8 0 -8 6 0 20 8 14 8 20 0 20 -8 0 -8 6 0 20 8 14 8 20 0 20
-8 0 -8 6 0 20 8 14 8 20 0 20 -8 0 -8 6 0 20 8 14 8 20 0 20 -8 0 -8 6 0 20
8 14 8 20 0 20 -8 0 -8 6 0 20 8 14 8 20 0 20 -8 0 -8 6 0 20 8 14 8 20 0 20
-8 0 -8 6 0 20 8 14 8 20 0 20 -8 0 -8 6 0 20 8 14 8 20 0 20 -8 0 -8 6 0 20
8 14 8 20 0 20 -8 0 -8 6 0 20 8 14 8 20 0 20 -8 0 -8 6 0 20 8 14 8 20 0 20
-8 0 -8 6 0 20 8 14 8 20 0 20 -8 0 -8 6 0 20 8 14 8 20 0 20 -7 0 -8 6 -2 18
9 19 8 53 -2 70 -3 6 -2 13 3 17 7 4 7 15 1 30 -6 16 -6 25 0 25 6 0 6 10 0
26 -6 14 -7 23 -2 21 8 -6 7 155 -1 178 -4 8 -2 15 3 15 6 0 6 10 0 26 -6 14
-7 23 -2 21 8 -6 7 155 -1 178 -4 8 -2 15 3 15 6 0 6 10 0 26 -6 14 -7 23 -2
21 4 -3 7 19 7 49 0 30 -3 54 -7 54 -4 0 -3 11 2 25 6 16 6 25 0 25 -6 0 -6 9
0 25 6 16 6 25 -1 25 -6 0 -6 7 1 19 7 13 7 22 0 26 -7 4 -7 12 0 25 7 13 7
21 0 25 -7 4 -7 13 0 26 7 12 7 19 1 19 -7 0 -7 9 -1 25 6 16 6 25 0 25 -6 0
-6 9 0 25 6 16 6 25 -1 25 -6 0 -6 7 1 19 7 13 7 22 0 26 -7 4 -7 12 0 25 7
13 7 21 0 25 -7 4 -7 13 0 26 6 10 7 19 2 19 -5 0 -6 17 -2 39 4 21 3 46 -2
54 -5 9 -4 18 1 22 7 4 7 15 1 30 -6 16 -6 25 0 25 6 0 6 10 0 26 -6 14 -7 23
-2 21 8 -6 7 155 -1 178 -4 8 -2 15 3 15 6 0 6 10 0 26 -6 14 -7 23 -2 21 8
-6 7 155 -1 178 -4 8 -2 15 3 15 6 0 6 10 0 26 -6 14 -7 23 -2 21 4 -3 7 19 7
49 0 30 -3 54 -7 54 -4 0 -3 11 2 25 6 16 6 25 0 25 -6 0 -6 9 0 25 6 16 6 25
-1 25 -6 0 -6 7 1 19 7 13 7 22 0 26 -7 4 -7 12 0 25 7 13 7 21 0 25 -7 4 -7
13 0 26 7 12 7 19 1 19 -7 0 -7 9 -1 25 6 16 6 25 0 25 -6 0 -6 9 0 25 6 16 6
25 -1 25 -6 0 -6 7 1 19 7 13 7 22 0 26 -7 4 -7 12 0 25 7 13 7 21 0 25 -7 4
-7 13 0 26 6 10 7 19 3 19 -10 0 -8 63 2 79 3 6 1 11 -5 11 -8 0 -8 6 0 20 8
14 8 20 0 20 -8 0 -8 6 0 20 8 14 8 20 0 20 -8 0 -8 6 0 20 8 14 8 20 0 20 -8
0 -8 6 0 20 8 14 8 20 0 20 -8 0 -8 6 0 20 8 14 8 20 0 20 -8 0 -8 6 0 20 8
14 8 20 0 20 -8 0 -8 6 0 20 8 14 8 20 0 20 -8 0 -8 6 0 20 8 14 8 20 0 20 -8
0 -8 6 0 20 8 14 8 20 0 20 -8 0 -8 6 0 20 8 14 8 20 0 20 -8 0 -8 6 0 20 8
14 8 20 0 20 -8 0 -8 6 0 20 8 14 8 20 0 20 -8 0 -8 6 0 20 8 14 8 20 0 20 -8
0 -8 6 0 20 8 14 8 20 0 20 -7 0 -8 6 -2 18 9 19 8 53 -2 70 -3 6 -2 13 4 17
7 4 7 12 0 25 -7 13 -7 21 0 25 7 4 7 13 0 26 -8 13 -7 19 0 19 8 0 8 6 0 20
-7 13 -7 20 -1 20 7 0 7 9 1 25 -6 16 -6 25 0 25 6 0 6 9 0 25 -6 16 -6 25 0
25 6 0 6 10 0 26 -6 14 -7 23 -2 21 6 -4 7 24 3 66 -2 14 -19 7 -34 -15z"/>
</g>
</svg>
